<svg xmlns="http://www.w3.org/2000/svg" viewBox="0 0 24 24" fill="currentColor">
  <path fill-rule="evenodd" d="M12 2.25c-5.385 0-9.75 4.365-9.75 9.75s4.365 9.75 9.75 9.75 9.75-4.365 9.75-9.75S17.385 2.25 12 2.25ZM12.255 6.265a.75.75 0 0 0-1.42-.435l-1.373 4.58a.75.75 0 0 0 .435 1.42l4.58 1.373a.75.75 0 0 0 .435-1.42l-2.659-1.33L16.5 9.75a.75.75 0 0 0-1.42-.435l-2.825 2.825-1.33-2.659Zm-3.435 5.23a.75.75 0 0 0-1.06 1.06l2.828 2.829-1.33 2.659a.75.75 0 1 0 1.42.435l1.372-4.58a.75.75 0 0 0-.435-1.42l-4.58-1.372Z" clip-rule="evenodd" />
</svg>